<svg width="24" height="24" viewBox="0 0 24 24" fill="none" xmlns="http://www.w3.org/2000/svg">
<rect width="24" height="24" fill="white"/>
<path d="M9.46045 14.0001V10.7274H9.94624V11.2387H9.98886C10.057 11.064 10.1671 10.9283 10.3191 10.8318C10.4711 10.7337 10.6536 10.6847 10.8667 10.6847C11.0826 10.6847 11.2623 10.7337 11.4058 10.8318C11.5506 10.9283 11.6636 11.064 11.7445 11.2387H11.7786C11.8624 11.0697 11.9881 10.9355 12.1558 10.836C12.3234 10.7352 12.5244 10.6847 12.7587 10.6847C13.0514 10.6847 13.2907 10.7764 13.4768 10.9596C13.6629 11.1414 13.7559 11.4248 13.7559 11.8097V14.0001H13.2531V11.8097C13.2531 11.5683 13.187 11.3957 13.0549 11.292C12.9228 11.1883 12.7673 11.1364 12.5883 11.1364C12.3582 11.1364 12.1799 11.206 12.0535 11.3453C11.9271 11.483 11.8639 11.6578 11.8639 11.8694V14.0001H11.3525V11.7586C11.3525 11.5725 11.2921 11.4227 11.1714 11.309C11.0506 11.194 10.8951 11.1364 10.7048 11.1364C10.5741 11.1364 10.4519 11.1712 10.3383 11.2408C10.2261 11.3105 10.1352 11.407 10.0656 11.5306C9.99738 11.6528 9.96329 11.7941 9.96329 11.9546V14.0001H9.46045Z" fill="black"/>
<path fill-rule="evenodd" clip-rule="evenodd" d="M12.5 5.03668V1H11.5V5.03668C8.42023 5.48745 6 9.99774 6 12.9334V19H8L8 23H9L9 19H11.5V23H12.5V19H15V23H16V19H18V12.9334C18 9.99774 15.5798 5.48745 12.5 5.03668ZM16.8797 18C14.0275 15.9106 9.97252 15.9106 7.12025 18H16.8797ZM17 12.9334V16.871C13.9949 14.9537 10.0051 14.9537 7 16.871V12.9334C7 11.6281 7.58607 9.83718 8.58428 8.36923C9.60068 6.87454 10.8385 6.00005 12 6.00005C13.1615 6.00005 14.3993 6.87454 15.4157 8.36923C16.4139 9.83718 17 11.6281 17 12.9334Z" fill="black"/>
<path d="M18.9633 23.0001V21.0313C18.9633 20.841 18.9995 20.6791 19.072 20.5455C19.1444 20.412 19.2431 20.3105 19.3681 20.2409C19.4945 20.1712 19.638 20.1364 19.7985 20.1364C20.0315 20.1364 20.2147 20.2089 20.3482 20.3538C20.4818 20.4972 20.5485 20.6975 20.5485 20.9546V23.0001H21.0514V20.9205C21.0514 20.6421 21.0052 20.412 20.9129 20.2302C20.8205 20.047 20.6913 19.9106 20.5251 19.8211C20.3589 19.7302 20.165 19.6847 19.9434 19.6847C19.6962 19.6847 19.4945 19.7359 19.3383 19.8382C19.182 19.939 19.0656 20.0725 18.9889 20.2387H18.9462V19.7274H18.4604V23.0001H18.9633Z" fill="black"/>
</svg>
