<svg width="24" height="24" viewBox="0 0 24 24" fill="none" xmlns="http://www.w3.org/2000/svg">
<rect width="24" height="24" fill="white"/>
<path fill-rule="evenodd" clip-rule="evenodd" d="M12.5 5.03929V1H11.5V5.03929C8.42023 5.52227 6 10.3547 6 13.5V20C6.31057 19.6396 6.6455 19.3145 7 19.0249C7.61595 18.5217 8.29099 18.1255 9 17.8362L9 23H10L10 17.5043C11.3096 17.1647 12.6904 17.1647 14 17.5043L14 23H15V17.8362C15.709 18.1255 16.3841 18.5217 17 19.0249C17.3545 19.3145 17.6894 19.6396 18 20V13.5C18 10.3547 15.5798 5.52227 12.5 5.03929ZM17 13.5V17.7785C13.9949 15.74 10.0051 15.74 7 17.7785V13.5C7 12.0673 7.59744 10.1255 8.60167 8.54327C9.63283 6.91855 10.8713 6.00005 12 6.00005C13.1287 6.00005 14.3672 6.91855 15.3983 8.54327C16.4026 10.1255 17 12.0673 17 13.5Z" fill="black"/>
</svg>
